PathFileType	4	(X/Y/Z)	2.trc
DataRate	CameraRate	NumFrames	NumMarkers	Units	OrigDataRate	OrigDataStartFrame	OrigNumFrames
147	147	4	50	mm	147	375	1496
Frame#	Time	L_IAS			R_IAS			L_TH1			L_TH2			L_TH3			L_TH4			L_FLE			L_FME			L_SK1			L_SK2			L_SK3			L_SK4			L_FAL			L_TAM			L_FCC			L_FM1			L_FM2			L_FM5			R_TH1			R_TH2			R_TH3			R_TH4			R_FLE			R_FME			R_SK2			R_SK1			R_SK3			R_SK4			R_FAL			R_TAM			R_FCC			R_FM1			R_FM2			R_FM5			R_IPS			L_IPS			CV7			L_SIA			R_SIA			TV10			L_SAE			R_SAE			L_ARM			R_ARM			L_HLE			R_HLE			L_RSP			L_USP			R_RSP			R_USP		
		X1	Y1	Z1	X2	Y2	Z2	X3	Y3	Z3	X4	Y4	Z4	X5	Y5	Z5	X6	Y6	Z6	X7	Y7	Z7	X8	Y8	Z8	X9	Y9	Z9	X10	Y10	Z10	X11	Y11	Z11	X12	Y12	Z12	X13	Y13	Z13	X14	Y14	Z14	X15	Y15	Z15	X16	Y16	Z16	X17	Y17	Z17	X18	Y18	Z18	X19	Y19	Z19	X20	Y20	Z20	X21	Y21	Z21	X22	Y22	Z22	X23	Y23	Z23	X24	Y24	Z24	X25	Y25	Z25	X26	Y26	Z26	X27	Y27	Z27	X28	Y28	Z28	X29	Y29	Z29	X30	Y30	Z30	X31	Y31	Z31	X32	Y32	Z32	X33	Y33	Z33	X34	Y34	Z34	X35	Y35	Z35	X36	Y36	Z36	X37	Y37	Z37	X38	Y38	Z38	X39	Y39	Z39	X40	Y40	Z40	X41	Y41	Z41	X42	Y42	Z42	X43	Y43	Z43	X44	Y44	Z44	X45	Y45	Z45	X46	Y46	Z46	X47	Y47	Z47	X48	Y48	Z48	X49	Y49	Z49	X50	Y50	Z50

375	2.544218	62.854696	416.466509	-454.550785	110.589247	390.800062	-192.098990	164.463884	414.117801	-542.576315	151.059034	377.425450	-562.889328	218.005114	374.762726	-591.489385	231.712367	409.959448	-568.490761	307.785547	327.268590	-596.823804	355.902031	307.572388	-477.757230	290.788715	236.604600	-601.386299	257.489858	262.374094	-609.238445	211.360558	203.721101	-602.010569	246.181720	177.736879	-593.560743	77.459467	42.412581	-524.807798	112.630446	55.917270	-444.522964	-7.201059	22.892206	-469.544519	197.576680	-12.411531	-463.239533	206.496439	-6.090015	-508.385216	157.781187	-27.581345	-569.265060	275.001357	369.454026	-88.175044	295.686223	397.871938	-115.819981	359.511251	359.123053	-111.125557	350.249361	322.344500	-84.629926	344.492090	287.315461	-97.002647	366.821167	275.337049	-229.757633	314.572548	215.198464	-91.508964	284.198957	249.753526	-90.125941	261.453417	165.306994	-97.868823	230.254272	197.333650	-95.073848	64.490593	52.854184	-156.681786	112.565653	37.184722	-235.204800	-6.887630	25.807776	-224.313073	186.886295	-21.544563	-162.413223	178.457045	3.388078	-116.054469	130.786903	0.723475	-78.573263	-48.266041	461.376775	-243.388829	-56.768380	468.576451	-336.413649	265.725082	801.731654	-293.061624	144.690305	691.114331	-389.018428	187.327588	677.054984	-181.363288	113.392234	635.212031	-294.280875	331.812886	761.467564	-477.340718	395.015462	741.510022	-151.570204	216.646033	659.897544	-577.032739	481.783627	592.359395	-130.463159	95.015229	568.023844	-613.204646	576.883940	472.523281	-193.031759	12.847728	337.133448	-595.169160	6.646174	356.100668	-656.626606	566.427919	580.987666	-413.256513	629.419255	557.651611	-417.344549
376	2.551020	62.906779	416.409600	-454.560318	110.610741	390.785992	-192.132072	164.596608	414.034529	-542.479503	151.202533	377.308128	-562.773469	218.156799	374.643353	-591.333408	231.858548	409.844054	-568.325648	307.946858	327.139276	-596.572551	355.917055	307.448655	-477.482337	290.925420	236.476999	-601.115719	257.645854	262.253500	-609.010898	211.486921	203.623413	-601.808716	246.299796	177.629149	-593.329811	77.459828	42.390377	-524.681250	112.661372	55.841032	-444.370223	-7.196691	22.823546	-469.411341	197.581601	-12.427075	-463.230346	206.504744	-6.079529	-508.363819	157.775192	-27.550190	-569.238685	274.985984	369.490831	-88.188468	295.670607	397.899098	-115.834770	359.495368	359.150009	-111.130520	350.231703	322.386808	-84.627552	344.499374	287.353988	-96.977156	366.806574	275.342691	-229.744884	314.572814	215.214784	-91.489772	284.203310	249.772366	-90.105523	261.448081	165.339228	-97.839425	230.255744	197.357988	-95.029979	64.480868	52.867414	-156.639217	112.518204	37.197926	-235.160411	-6.905833	25.833155	-224.259692	186.882153	-21.529460	-162.404845	178.456159	3.381701	-116.031150	130.788252	0.713435	-78.545669	-48.200102	461.447931	-243.447185	-56.689202	468.599537	-336.473908	266.044386	801.541477	-293.189226	144.909361	691.023589	-389.124289	187.581704	676.938706	-181.472557	113.588843	635.148234	-294.379338	332.072608	761.235703	-477.472795	395.300007	741.230502	-151.726344	216.771242	659.707588	-577.090106	482.029458	592.088421	-130.634913	95.054016	567.940126	-613.214846	577.121867	472.263632	-193.227238	12.862476	337.074056	-595.022878	6.614954	356.016367	-656.477816	566.679027	580.801845	-413.420613	629.673414	557.465630	-417.511663
377	2.557823	62.949721	416.358681	-454.567820	110.623804	390.769684	-192.164784	164.717545	413.961127	-542.384825	151.334009	377.204284	-562.662529	218.292437	374.538751	-591.183712	231.991409	409.740219	-568.166297	308.092725	327.024037	-596.337290	355.925223	307.328541	-477.226555	291.048100	236.364455	-600.868062	257.785984	262.147408	-608.802276	211.598384	203.540837	-601.629086	246.402450	177.537241	-593.124526	77.456281	42.366032	-524.578117	112.683169	55.771019	-444.244440	-7.198008	22.755607	-469.304414	197.582880	-12.437520	-463.224603	206.508890	-6.071319	-508.347194	157.768431	-27.526640	-569.218214	274.966967	369.524038	-88.201696	295.649523	397.923613	-115.846758	359.473784	359.175114	-111.132273	350.209503	322.427136	-84.622500	344.503740	287.391360	-96.949727	366.788646	275.346914	-229.729757	314.569243	215.228069	-91.467762	284.203396	249.788270	-90.084251	261.439864	165.367865	-97.809328	230.255276	197.379910	-94.983221	64.468973	52.876681	-156.597700	112.468355	37.208862	-235.116978	-6.924607	25.854450	-224.207576	186.877318	-21.514618	-162.396409	178.451901	3.374124	-116.008169	130.787659	0.701775	-78.518365	-48.142864	461.515464	-243.501086	-56.619078	468.623054	-336.530099	266.355547	801.352183	-293.317898	145.118847	690.932208	-389.226180	187.830153	676.824446	-181.580358	113.777985	635.084307	-294.473438	332.321035	761.002489	-477.606585	395.580606	740.954229	-151.884866	216.879505	659.519877	-577.147375	482.268798	591.817716	-130.809799	95.073782	567.861415	-613.223392	577.352293	472.004326	-193.426261	12.847510	337.019826	-594.872261	6.559591	355.938633	-656.328837	566.923526	580.616442	-413.587873	629.920553	557.277889	-417.681520
378	2.564626	62.984147	416.312285	-454.573919	110.629689	390.751385	-192.196987	164.825806	413.896153	-542.294764	151.452559	377.112454	-562.558647	218.411269	374.446784	-591.042438	232.109994	409.645966	-568.015761	308.222206	326.920826	-596.120880	355.928353	307.212179	-476.992076	291.155850	236.264920	-600.644924	257.909519	262.053593	-608.614284	211.694630	203.470734	-601.472340	246.489206	177.458891	-592.945405	77.448691	42.339455	-524.496482	112.695984	55.705904	-444.143546	-7.204774	22.687627	-469.221261	197.580795	-12.443478	-463.222066	206.508864	-6.065152	-508.335069	157.760953	-27.510548	-569.203320	274.945279	369.553765	-88.215291	295.624193	397.945628	-115.856335	359.447822	359.198529	-111.131176	350.183703	322.465588	-84.614926	344.506040	287.427547	-96.920340	366.768302	275.349634	-229.712322	314.562974	215.238369	-91.443042	284.200360	249.801412	-90.061931	261.429599	165.392885	-97.778324	230.253644	197.399648	-94.933633	64.455304	52.882596	-156.556894	112.416501	37.218139	-235.074234	-6.943801	25.872565	-224.156422	186.871892	-21.500081	-162.387977	178.444780	3.365503	-115.985526	130.785533	0.688731	-78.491283	-48.093062	461.578630	-243.550726	-56.557323	468.646291	-336.582602	266.658188	801.164143	-293.446655	145.318651	690.840107	-389.323342	188.072697	676.712021	-181.686068	113.959669	635.019803	-294.562971	332.557590	760.768649	-477.741358	395.856725	740.681623	-152.044965	216.970882	659.335042	-577.203818	482.501803	591.548149	-130.987066	95.074672	567.787622	-613.229372	577.575256	471.746327	-193.628499	12.804109	336.970844	-594.717608	6.480281	355.867333	-656.179284	567.160124	580.431219	-413.758411	630.159293	557.088457	-417.854471
